<?xml version="1.0" encoding="UTF-8"?>
<svg id="Ebene_2" data-name="Ebene 2" xmlns="http://www.w3.org/2000/svg" viewBox="0 0 79 79">
  <defs>
    <style>
      .cls-1 {
        fill: #fc7b1a;
      }

      .cls-2 {
        fill: #fff;
      }

      .cls-3 {
        fill: #e2e2e2;
      }

      .cls-4 {
        fill: #444;
      }

      .cls-5 {
        fill: #f2f4f5;
      }
    </style>
  </defs>
  <g>
    <path class="cls-4" d="M39.05,53.66c.18.37.71.37.89,0l7.19-14.38c.17-.33-.08-.72-.45-.72h-5.69v-14s-3,0-3,0v14h-5.69c-.37,0-.61.39-.45.72l7.19,14.38Z"/>
    <rect class="cls-2" x=".5" y=".25" width="78" height="78" rx="10.88" ry="10.88"/>
  </g>
  <rect class="cls-5" x="5.5" y="7.25" width="68" height="64" rx="5" ry="5"/>
  <path class="cls-3" d="M28.36,72.99s46.43-16.04,45.14-41.74c-.46.31.95,35.66.95,35.66l-1.8,2.96-10.08,4.72-34.22-1.6Z"/>
  <path d="M77.5,69.53V13.28c0-4.34-3.53-7.88-7.88-7.88H13.38c-4.34,0-7.88,3.53-7.88,7.88v56.24c0,4.34,3.53,7.88,7.88,7.88h56.24c4.34,0,7.88-3.53,7.88-7.88ZM9.38,73.4c-2.14,0-3.88-1.74-3.88-3.88V10.28c0-2.14,5.74-4.88,7.88-4.88h56.24c2.14,0,3.88,1.74,3.88,3.88v60.24c0,2.14-1.74,3.88-3.88,3.88H9.38Z"/>
  <g>
    <path class="cls-1" d="M53.91,39.85c.37-.18.37-.71,0-.89l-14.38-7.19c-.33-.17-.72.08-.72.45v5.69h-14v3h14v5.69c0,.37.39.61.72.45l14.38-7.19Z"/>
    <path class="cls-1" d="M75.5,67.53V11.28c0-4.34-3.53-7.88-7.88-7.88H11.38c-4.34,0-7.88,3.53-7.88,7.88v56.24c0,4.34,3.53,7.88,7.88,7.88h56.24c4.34,0,7.88-3.53,7.88-7.88ZM11.38,71.4c-2.14,0-3.88-1.74-3.88-3.88V11.28c0-2.14,1.74-3.88,3.88-3.88h56.24c2.14,0,3.88,1.74,3.88,3.88v56.24c0,2.14-1.74,3.88-3.88,3.88H11.38Z"/>
  </g>
</svg>