<?xml version="1.0" encoding="UTF-8"?>
<svg id="Ebene_2" data-name="Ebene 2" xmlns="http://www.w3.org/2000/svg" viewBox="0 0 235.26 144.35">
  <defs>
    <style>
      .cls-1 {
        fill: #fff;
      }

      .cls-2 {
        fill: #e2e2e2;
      }

      .cls-3 {
        fill: #444;
      }

      .cls-4 {
        fill: #f2f4f5;
      }
    </style>
  </defs>
  <g>
    <path class="cls-3" d="M117.06,119.17c.18.37.71.37.89,0l7.19-14.38c.17-.33-.08-.72-.45-.72h-5.69v-14s-3,0-3,0v14h-5.69c-.37,0-.61.39-.45.72l7.19,14.38Z"/>
    <rect class="cls-1" x="78.5" y="65.76" width="78" height="78" rx="10.88" ry="10.88"/>
  </g>
  <rect class="cls-4" x="83.5" y="72.6" width="68" height="64" rx="5" ry="5"/>
  <path class="cls-2" d="M106.36,138.35s46.43-16.04,45.14-41.74c-.46.31.95,35.66.95,35.66l-1.8,2.96-10.08,4.72-34.22-1.6Z"/>
  <g>
    <path d="M117.95,90.34c-.18-.37-.71-.37-.89,0l-7.19,14.38c-.17.33.08.72.45.72h5.69v14s3,0,3,0v-14h5.69c.37,0,.61-.39.45-.72l-7.19-14.38Z"/>
    <path d="M153.5,132.88v-56.24c0-4.34-3.53-7.88-7.88-7.88h-56.24c-4.34,0-7.88,3.53-7.88,7.88v56.24c0,4.34,3.53,7.88,7.88,7.88h56.24c4.34,0,7.88-3.53,7.88-7.88ZM89.38,136.76c-2.14,0-3.88-1.74-3.88-3.88v-56.24c0-2.14,1.74-3.88,3.88-3.88h56.24c2.14,0,3.88,1.74,3.88,3.88v56.24c0,2.14-1.74,3.88-3.88,3.88h-56.24Z"/>
  </g>
  <g>
    <path d="M100.86,49.74c0,3.8-2.41,6.57-6.47,6.57-3.76,0-6.45-2.25-6.45-6.4h2.73c0,2.52,1.22,3.8,3.72,3.8s3.7-1.74,3.7-3.97v-5.84h-4.43v-2.58h7.2v8.42Z"/>
    <path d="M116.36,41.34v8.42c0,4.35-2.67,6.57-6.36,6.57s-6.53-2.14-6.53-6.57v-8.42h2.75v8.42c0,2.65,1.51,4.05,3.8,4.05s3.59-1.53,3.59-4.05v-8.42h2.75Z"/>
    <path d="M131.87,45.37l-4.79,6.38h-.55l-4.68-6.4v10.69h-2.77v-14.7h3.19l4.6,6.32,4.6-6.32h3.17v14.7h-2.77v-10.67Z"/>
    <path d="M144.18,51.69h-4.16v4.33h-2.77v-14.7c2.31,0,4.62-.02,6.93-.02,7.18,0,7.2,10.39,0,10.39ZM140.02,49.15h4.16c3.55,0,3.53-5.21,0-5.21h-4.16v5.21Z"/>
  </g>
  <g>
    <path d="M16.08,118.07v12.14h7.56v2.56h-10.33v-14.7h2.77Z"/>
    <path d="M36.55,132.77h-11v-14.7h11v2.69h-8.25v3.38h7.96v2.58h-7.96v3.32h8.25v2.73Z"/>
    <path d="M38.7,132.77v-14.68h10.56v2.67h-7.79v4.01h7.37v2.56h-7.37v5.44h-2.77Z"/>
    <path d="M55.62,120.59h-4.66v-2.52h12.09v2.52h-4.66v12.18h-2.77v-12.18Z"/>
  </g>
  <g>
    <path d="M178.93,132.77h-3.3l-4.28-4.91h-2.67v4.91h-2.77v-14.72c2.33,0,4.66.02,6.99.02,3.46.02,5.29,2.33,5.29,4.87,0,2.02-.92,4.05-3.72,4.62l4.45,5.02v.19ZM168.69,120.65v4.7h4.22c1.76,0,2.52-1.18,2.52-2.35s-.78-2.35-2.52-2.35h-4.22Z"/>
    <path d="M180.09,132.77v-14.7h2.75v14.7h-2.75Z"/>
    <path d="M196.36,121.66c-.99-.95-2.46-1.47-3.74-1.47-3.15,0-5.06,2.39-5.06,5.42,0,2.41,1.41,4.91,5.06,4.91,1.15,0,2.16-.25,3.32-1.18v-2.6h-3.76v-2.48h6.3v6.19c-1.45,1.66-3.28,2.65-5.86,2.65-5.52,0-7.77-3.63-7.77-7.5,0-4.14,2.58-7.96,7.77-7.96,1.97,0,3.95.76,5.46,2.25l-1.72,1.76Z"/>
    <path d="M210.77,132.79v-5.94h-7.22v5.94h-2.77v-14.7h2.77v6.19h7.22v-6.19h2.75v14.7h-2.75Z"/>
    <path d="M219.93,120.59h-4.66v-2.52h12.09v2.52h-4.66v12.18h-2.77v-12.18Z"/>
  </g>
</svg>