<?xml version="1.0" encoding="UTF-8"?>
<svg xmlns="http://www.w3.org/2000/svg" viewBox="0 0 79 79">
  <defs>
    <style>
      .cls-1 {
        fill: #fff;
      }

      .cls-2 {
        fill: #e2e2e2;
      }

      .cls-3 {
        fill: #444;
      }

      .cls-4 {
        fill: #f2f4f5;
      }
    </style>
  </defs>
  <g id="Ebene_2" data-name="Ebene 2">
    <g>
      <path class="cls-3" d="M39.05,53.82c.18.37.71.37.89,0l7.19-14.38c.17-.33-.08-.72-.45-.72h-5.69v-14s-3,0-3,0v14h-5.69c-.37,0-.61.39-.45.72l7.19,14.38Z"/>
      <rect class="cls-1" x=".5" y=".4" width="78" height="78" rx="10.88" ry="10.88"/>
    </g>
    <rect class="cls-4" x="5.5" y="7.25" width="68" height="64" rx="5" ry="5"/>
    <path class="cls-2" d="M28.36,72.99s46.43-16.04,45.14-41.74c-.46.31.95,35.66.95,35.66l-1.8,2.96-10.08,4.72-34.22-1.6Z"/>
    <path d="M75.5,67.53V11.28c0-4.34-3.53-7.88-7.88-7.88H11.38c-4.34,0-7.88,3.53-7.88,7.88v56.24c0,4.34,3.53,7.88,7.88,7.88h56.24c4.34,0,7.88-3.53,7.88-7.88ZM11.38,71.4c-2.14,0-3.88-1.74-3.88-3.88V11.28c0-2.14,1.74-3.88,3.88-3.88h56.24c2.14,0,3.88,1.74,3.88,3.88v56.24c0,2.14-1.74,3.88-3.88,3.88H11.38Z"/>
  </g>
  <g id="Ebene_3" data-name="Ebene 3">
    <path d="M27.62,65.24c-2.09.31-3.57-1.69-4.38-3.28-2.06-4.72-1.59-10.22-.02-15.03,1.25,4.63,1.55,9.44,2.69,14.03.37,1.38.61,2.84,1.72,3.83,0,0,0,.44,0,.44h0Z"/>
    <path d="M37.82,67.2c-4.73-.57-7.56-5.57-7.7-9.96-.07-1.48.2-2.95.74-4.32.29.7.46,1.37.69,2.02,1.35,4.51,4.02,7.89,6.49,11.88,0,0-.21.39-.21.39h0Z"/>
    <g>
      <path d="M58.39,45.95c-.52-1.16-1.88-1.67-3.03-1.15l-.95.43-1.09-2.34c-.44-.93-1.43-1.46-2.45-1.29l-2.05.33c.07-.77.11-1.57.11-2.38,0-3.81-1.69-7.21-4.36-9.52,2.14-1.18,3.85-2.69,5.12-4.55,3.71-5.42,2.11-11.6,2.04-11.86-.29-1.07-1.38-1.7-2.45-1.41-1.07.28-1.71,1.38-1.43,2.45.01.05,1.18,4.72-1.5,8.59-1.32,1.91-3.37,3.36-6.12,4.33-3.59,1.19-7.87.02-7.87.02-2.78-.97-4.85-2.43-6.18-4.36-2.67-3.86-1.52-8.5-1.5-8.59.28-1.07-.35-2.16-1.42-2.45-1.07-.29-2.17.35-2.46,1.42-.07.26-1.67,6.44,2.04,11.86,1.29,1.88,3.03,3.41,5.21,4.59-2.1,3.8-2.9,7.55-2.38,11.29,1.18,8.37,9.11,9.93,12.89,10.37l5.49,1.17.05,2.79c.02,1.25,1.04,2.26,2.29,2.26h3.48c1.27,0,2.29-1.03,2.29-2.29s-1.03-2.29-2.29-2.29h-1.22l-.04-2.36c-.02-1.07-.77-1.98-1.82-2.21l-.14-.03c.42-.61.79-1.28,1.08-2.02l2.16-.35,1.32,2.82c.39.83,1.22,1.32,2.08,1.32.32,0,.64-.07.94-.2l3.01-1.36c1.15-.52,1.67-1.88,1.15-3.03Z"/>
      <circle cx="36.33" cy="20.35" r="6.2" transform="translate(-2.79 6.08) rotate(-9.22)"/>
    </g>
  </g>
</svg>