<?xml version="1.0" encoding="UTF-8"?>
<svg id="Ebene_2" data-name="Ebene 2" xmlns="http://www.w3.org/2000/svg" viewBox="0 0 108.66 143.56">
  <defs>
    <style>
      .cls-1, .cls-2 {
        fill: #fc7b1a;
      }

      .cls-3 {
        fill: #fff;
      }

      .cls-4 {
        fill: #e2e2e2;
      }

      .cls-5 {
        fill: #444;
      }

      .cls-2 {
        font-family: Inter-Bold, Inter;
        font-size: 30.79px;
        font-weight: 700;
      }

      .cls-6 {
        fill: #f2f4f5;
      }
    </style>
  </defs>
  <g>
    <path d="M18.58,16.68h-4.66v-2.52h12.09v2.52h-4.66v12.18h-2.77v-12.18Z"/>
    <path d="M37.71,28.88v-5.94h-7.22v5.94h-2.77v-14.7h2.77v6.19h7.22v-6.19h2.75v14.7h-2.75Z"/>
    <path d="M56.1,28.85h-3.3l-4.28-4.91h-2.67v4.91h-2.77v-14.72c2.33,0,4.66.02,6.99.02,3.46.02,5.29,2.33,5.29,4.87,0,2.02-.92,4.05-3.72,4.62l4.45,5.02v.19ZM45.86,16.74v4.7h4.22c1.76,0,2.52-1.18,2.52-2.35s-.78-2.35-2.52-2.35h-4.22Z"/>
    <path d="M71.69,21.59c-.04,3.8-2.37,7.6-7.54,7.6s-7.56-3.72-7.56-7.58,2.48-7.75,7.56-7.75,7.58,3.88,7.54,7.73ZM59.32,21.65c.06,2.41,1.36,5,4.83,5s4.77-2.6,4.81-5.02c.04-2.48-1.34-5.25-4.81-5.25s-4.89,2.79-4.83,5.27Z"/>
    <path d="M88.95,28.85h-2.35l-1.83-4.62-1.55-4.64-1.53,4.68-1.78,4.58h-2.35l-5.4-14.7h3.11l3.46,10.6,3.57-10.6h1.81l3.67,10.6,3.36-10.6h3.11l-5.29,14.7Z"/>
    <path d="M7.37,43.98H2.7v-2.52h12.09v2.52h-4.66v12.18h-2.77v-12.18Z"/>
    <path d="M26.92,53.38h-7.68l-1.26,2.77h-3l6.59-14.7h3.02l6.59,14.7h-3.02l-1.24-2.77ZM23.07,44.54l-2.73,6.26h5.46l-2.73-6.26Z"/>
    <path d="M44.16,45.72c0,1.13-.55,2.23-1.91,2.83,1.72.53,2.35,2.35,2.35,3.28,0,3.28-2.46,4.33-5.5,4.33h-6.97v-14.7h6.97c2.9,0,5.06,1.3,5.06,4.26ZM34.85,47.36h4.24c1.74,0,2.31-.74,2.31-1.58,0-.67-.55-1.8-2.31-1.8h-4.24v3.38ZM34.85,53.57h4.24c1.13,0,2.75-.38,2.75-1.76s-1.62-2.02-2.75-2.02h-4.24v3.78Z"/>
    <path d="M56.99,53.38h-7.68l-1.26,2.77h-3l6.59-14.7h3.02l6.59,14.7h-3.02l-1.24-2.77ZM53.14,44.54l-2.73,6.26h5.46l-2.73-6.26Z"/>
    <path d="M71.35,45.01c-.5-.84-1.89-1.64-3.49-1.64-2.06,0-3.04.86-3.04,1.95,0,1.28,1.51,1.64,3.28,1.85,3.07.38,5.92,1.18,5.92,4.68,0,3.28-2.9,4.68-6.17,4.68-3,0-5.31-.92-6.4-3.61l2.31-1.2c.65,1.62,2.35,2.33,4.14,2.33s3.38-.61,3.38-2.21c0-1.39-1.45-1.95-3.4-2.16-3-.36-5.77-1.16-5.77-4.45,0-3.02,2.98-4.26,5.69-4.28,2.29,0,4.66.65,5.77,2.92l-2.2,1.13Z"/>
    <path d="M89.12,54.31c-1.51,1.49-3.46,2.18-5.58,2.18-5.46,0-7.77-3.76-7.79-7.58-.02-3.84,2.48-7.75,7.79-7.75,1.99,0,3.88.76,5.4,2.25l-1.85,1.78c-.97-.94-2.27-1.38-3.55-1.38-3.55,0-5.08,2.64-5.06,5.1.02,2.44,1.43,4.98,5.06,4.98,1.28,0,2.73-.53,3.7-1.49l1.89,1.91Z"/>
    <path d="M105.12,48.89c-.04,3.8-2.37,7.6-7.54,7.6s-7.56-3.72-7.56-7.58,2.48-7.75,7.56-7.75,7.58,3.88,7.54,7.73ZM92.75,48.95c.06,2.42,1.36,5,4.83,5s4.77-2.6,4.81-5.02c.04-2.48-1.34-5.25-4.81-5.25s-4.89,2.79-4.83,5.27Z"/>
  </g>
  <g>
    <path class="cls-5" d="M54.05,118.23c.18.37.71.37.89,0l7.19-14.38c.17-.33-.08-.72-.45-.72h-5.69v-14s-3,0-3,0v14h-5.69c-.37,0-.61.39-.45.72l7.19,14.38Z"/>
    <rect class="cls-3" x="15.49" y="64.81" width="78" height="78" rx="10.88" ry="10.88"/>
  </g>
  <rect class="cls-6" x="20.49" y="71.81" width="68" height="64" rx="5" ry="5"/>
  <path class="cls-4" d="M43.35,137.56s46.43-16.04,45.14-41.74c-.46.31.95,35.66.95,35.66l-1.8,2.96-10.08,4.72-34.22-1.6Z"/>
  <path d="M92.49,134.09v-56.24c0-4.34-3.53-7.88-7.88-7.88H28.37c-4.34,0-7.88,3.53-7.88,7.88v56.24c0,4.34,3.53,7.88,7.88,7.88h56.24c4.34,0,7.88-3.53,7.88-7.88ZM24.37,137.97c-2.14,0-3.88-1.74-3.88-3.88v-59.24c0-2.14,5.74-4.88,7.88-4.88h56.24c2.14,0,3.88,1.74,3.88,3.88v60.24c0,2.14-1.74,3.88-3.88,3.88H24.37Z"/>
  <text class="cls-2" transform="translate(30.5 103.81)"><tspan x="0" y="0">D</tspan></text>
  <path class="cls-1" d="M90.49,132.09v-56.24c0-4.34-3.53-7.88-7.88-7.88H26.37c-4.34,0-7.88,3.53-7.88,7.88v56.24c0,4.34,3.53,7.88,7.88,7.88h56.24c4.34,0,7.88-3.53,7.88-7.88ZM26.37,135.97c-2.14,0-3.88-1.74-3.88-3.88v-56.24c0-2.14,1.74-3.88,3.88-3.88h56.24c2.14,0,3.88,1.74,3.88,3.88v56.24c0,2.14-1.74,3.88-3.88,3.88H26.37Z"/>
</svg>