<?xml version="1.0" encoding="UTF-8"?>
<svg id="Ebene_2" data-name="Ebene 2" xmlns="http://www.w3.org/2000/svg" viewBox="0 0 67.19 67.29">
  <defs>
    <style>
      .cls-1 {
        fill: #fff;
      }

      .cls-2 {
        fill: #a0220a;
      }
    </style>
  </defs>
  <g>
    <circle class="cls-1" cx="33.6" cy="33.64" r="32.03"/>
    <path class="cls-2" d="M33.6,4.29c-16.21,0-29.36,13.14-29.36,29.36s13.14,29.36,29.36,29.36,29.36-13.14,29.36-29.36S49.81,4.29,33.6,4.29Z"/>
  </g>
  <g>
    <path class="cls-1" d="M50.85,52.05s.06,0,.09,0c.12-.02.24-.05.36-.09,0,0,0,0,0,0,0,0,0,0,.01,0,.11-.05.21-.12.31-.19.02-.01.04-.03.05-.04.09-.08.17-.18.24-.28,0-.01.01-.02.02-.03.06-.09.1-.2.13-.3,0-.03.02-.05.02-.08.03-.11.04-.22.04-.33,0,0,0-.02,0-.03,0,0,0-.01,0-.02l-.35-10.26c-.03-.77-.67-1.37-1.43-1.34-.77.03-1.37.68-1.34,1.43l.23,6.74-6.79-6.79c-.54-.54-1.42-.54-1.96,0-.27.27-.41.63-.41.98s.14.71.41.98l6.92,6.92h-7.09c-.77,0-1.39.62-1.39,1.39s.62,1.39,1.39,1.39h10.44s.07,0,.1,0Z"/>
    <path class="cls-1" d="M52.04,16.63s0-.06,0-.09c-.02-.12-.05-.24-.09-.36,0,0,0,0,0,0,0,0,0,0,0-.01-.05-.11-.12-.21-.19-.31-.01-.02-.03-.04-.04-.05-.08-.09-.18-.17-.28-.24-.01,0-.02-.01-.03-.02-.09-.06-.2-.1-.3-.13-.03,0-.05-.02-.08-.02-.11-.03-.22-.04-.33-.04,0,0-.02,0-.03,0,0,0-.01,0-.02,0l-10.26.35c-.77.03-1.37.67-1.34,1.43.03.77.68,1.37,1.43,1.34l6.74-.23-6.79,6.79c-.54.54-.54,1.42,0,1.96.27.27.63.41.98.41s.71-.14.98-.41l6.92-6.92v7.09c0,.77.62,1.39,1.39,1.39s1.39-.62,1.39-1.39v-10.44s0-.07,0-.1Z"/>
    <path class="cls-1" d="M16.34,15.24s-.06,0-.09,0c-.12.02-.24.05-.36.09,0,0,0,0,0,0,0,0,0,0-.01,0-.11.05-.21.12-.31.19-.02.01-.04.03-.05.04-.09.08-.17.18-.24.28,0,.01-.01.02-.02.03-.06.09-.1.2-.13.3,0,.03-.02.05-.02.08-.03.11-.04.22-.04.33,0,0,0,.02,0,.03,0,0,0,.01,0,.02l.35,10.26c.03.77.67,1.37,1.43,1.34.77-.03,1.37-.68,1.34-1.43l-.23-6.74,6.79,6.79c.54.54,1.42.54,1.96,0,.27-.27.41-.63.41-.98s-.14-.71-.41-.98l-6.92-6.92h7.09c.77,0,1.39-.62,1.39-1.39s-.62-1.39-1.39-1.39h-10.44s-.07,0-.1,0Z"/>
    <path class="cls-1" d="M15.15,50.65s0,.06,0,.09c.02.12.05.24.09.36,0,0,0,0,0,0,0,0,0,0,0,.01.05.11.12.21.19.31.01.02.03.04.04.05.08.09.18.17.28.24.01,0,.02.01.03.02.09.06.2.1.3.13.03,0,.05.02.08.02.11.03.22.04.33.04,0,0,.02,0,.03,0,0,0,.01,0,.02,0l10.26-.35c.77-.03,1.37-.67,1.34-1.43-.03-.77-.68-1.37-1.43-1.34l-6.74.23,6.79-6.79c.54-.54.54-1.42,0-1.96-.27-.27-.63-.41-.98-.41s-.71.14-.98.41l-6.92,6.92v-7.09c0-.77-.62-1.39-1.39-1.39s-1.39.62-1.39,1.39v10.44s0,.07,0,.1Z"/>
  </g>
</svg>