<?xml version="1.0" encoding="UTF-8"?>
<svg xmlns="http://www.w3.org/2000/svg" viewBox="0 0 79 79">
  <defs>
    <style>
      .cls-1 {
        fill: #fff;
      }

      .cls-2 {
        fill: #e2e2e2;
      }

      .cls-3 {
        fill: #444;
      }

      .cls-4 {
        fill: #f2f4f5;
      }
    </style>
  </defs>
  <g id="Ebene_2" data-name="Ebene 2">
    <g>
      <path class="cls-3" d="M39.05,53.82c.18.37.71.37.89,0l7.19-14.38c.17-.33-.08-.72-.45-.72h-5.69v-14s-3,0-3,0v14h-5.69c-.37,0-.61.39-.45.72l7.19,14.38Z"/>
      <rect class="cls-1" x=".5" y=".4" width="78" height="78" rx="10.88" ry="10.88"/>
    </g>
    <rect class="cls-4" x="5.5" y="7.25" width="68" height="64" rx="5" ry="5"/>
    <path class="cls-2" d="M28.36,72.99s46.43-16.04,45.14-41.74c-.46.31.95,35.66.95,35.66l-1.8,2.96-10.08,4.72-34.22-1.6Z"/>
    <path d="M75.5,67.53V11.28c0-4.34-3.53-7.88-7.88-7.88H11.38c-4.34,0-7.88,3.53-7.88,7.88v56.24c0,4.34,3.53,7.88,7.88,7.88h56.24c4.34,0,7.88-3.53,7.88-7.88ZM11.38,71.4c-2.14,0-3.88-1.74-3.88-3.88V11.28c0-2.14,1.74-3.88,3.88-3.88h56.24c2.14,0,3.88,1.74,3.88,3.88v56.24c0,2.14-1.74,3.88-3.88,3.88H11.38Z"/>
  </g>
  <g id="Ebene_3" data-name="Ebene 3">
    <path d="M11.53,49.19c-2.84-9.49,4.45-19.67,13.47-22.44,3.69-1.36-.11.76-1.09,1.74-4.5,3.65-7.98,8.37-9.89,13.87-.82,2.15-1.45,4.39-2.05,6.79l-.44.04h0Z"/>
    <path d="M15.63,61.43c-3.76-7.12,1.5-16.24,7.31-20.59-2.19,4.98-4.53,9.87-5.74,15.17-.43,1.7-.82,3.41-1.15,5.3l-.43.12h0Z"/>
    <g>
      <path d="M51.06,44.7c.65-1.16,1.05-2.44,1.12-3.78l-.74-4.42,7.04-10.5c.24-.36.36-.78.34-1.21l-.05-1.25.36.24c.32.21.75.13.96-.19l2.24-3.34c.21-.32.13-.75-.19-.96l-7.75-5.2c-.32-.21-.75-.13-.96.19l-2.24,3.34c-.21.32-.13.75.19.96l.36.24-1.17.43c-.4.15-.75.42-.99.78l-7.04,10.5-4.37.99c-1.21.57-2.25,1.43-3.07,2.47h-.01s-.14.2-.14.2c-.08.11-.18.21-.25.33l-12.8,19.06c-.32.48-.36,1.11-.06,1.61.59.99,3.81,3.99,6.65,5.9s6.84,3.75,7.98,3.92c.58.08,1.14-.18,1.47-.66l2.42-3.6,10.38-15.46.37-.55-.04-.02ZM35.63,36.75l12.69,8.52-8.52,12.69-12.69-8.52,8.52-12.69ZM59.95,20.23l-.77,1.15-5.59-3.75.77-1.15,5.59,3.75ZM38.84,33.42l4.14-.94.77-.18.44-.66,7.06-10.51,1.17-.43,1.4-.51,2.9,1.94.06,1.49.04,1.26-7.04,10.5-.44.66.13.78.7,4.19c-.08.9-.35,1.77-.77,2.57l-12.65-8.49c.57-.69,1.28-1.27,2.08-1.69ZM36.46,62.95c-1.13-.36-4.3-1.8-6.86-3.52s-5.1-4.11-5.86-5.01l2.23-3.32,12.72,8.53-2.23,3.32Z"/>
      <rect x="29.36" y="38.55" width="16.78" height="16.78" transform="translate(32.56 -13.07) rotate(33.87)"/>
      <rect x="52.42" y="17.45" width="9.1" height="3.07" transform="translate(20.25 -28.53) rotate(33.87)"/>
    </g>
  </g>
</svg>