<?xml version="1.0" encoding="UTF-8"?>
<svg id="Ebene_2" data-name="Ebene 2" xmlns="http://www.w3.org/2000/svg" viewBox="0 0 67.19 67.29">
  <defs>
    <style>
      .cls-1 {
        fill: #fff;
      }

      .cls-2 {
        fill: #a0220a;
      }
    </style>
  </defs>
  <circle class="cls-1" cx="33.6" cy="33.64" r="32.03"/>
  <path class="cls-2" d="M33.6,4.29c-16.21,0-29.36,13.14-29.36,29.36s13.14,29.36,29.36,29.36,29.36-13.14,29.36-29.36S49.81,4.29,33.6,4.29ZM32.4,48.98c0,1.16-1.38,1.75-2.22.96l-9.69-9.11-1.13.34-4.27.84c-1.12,0-2.03-.91-2.03-2.03v-12.69c0-1.12.91-2.03,2.03-2.03l4.27.84,1.13.34,9.69-9.11c.84-.79,2.22-.19,2.22.96v30.67ZM39.44,40.43c-.22.1-.46.14-.69.14-.68,0-1.34-.4-1.62-1.07-.38-.89.04-1.93.93-2.31,1.87-.8,3.03-2.13,3.03-3.49,0-1.43-1.26-2.8-3.28-3.59-.91-.35-1.36-1.37-1-2.28.35-.91,1.37-1.36,2.28-1,3.41,1.32,5.52,3.95,5.52,6.87s-1.98,5.37-5.18,6.73ZM45.35,46.01c-.28.16-.59.24-.89.24-.61,0-1.19-.31-1.52-.87-.49-.84-.21-1.92.63-2.41,3.38-1.98,5.39-5.42,5.39-9.2s-2.22-7.52-5.79-9.42c-.86-.46-1.18-1.52-.73-2.38.46-.86,1.52-1.18,2.38-.73,4.72,2.52,7.65,7.32,7.65,12.53s-2.67,9.63-7.14,12.24Z"/>
</svg>