<?xml version="1.0" encoding="UTF-8"?>
<svg id="Ebene_2" data-name="Ebene 2" xmlns="http://www.w3.org/2000/svg" viewBox="0 0 67.19 67.29">
  <defs>
    <style>
      .cls-1 {
        fill: #fff;
      }

      .cls-2 {
        fill: #a0220a;
      }
    </style>
  </defs>
  <circle class="cls-1" cx="33.6" cy="33.64" r="32.03"/>
  <path class="cls-2" d="M33.6,4.29c-16.21,0-29.36,13.14-29.36,29.36s13.14,29.36,29.36,29.36,29.36-13.14,29.36-29.36S49.81,4.29,33.6,4.29ZM32.4,48.98c0,1.16-1.38,1.75-2.22.96l-9.69-9.11-1.13.34-4.27.84c-1.12,0-2.03-.91-2.03-2.03v-12.69c0-1.12.91-2.03,2.03-2.03l4.27.84,1.13.34,9.69-9.11c.84-.79,2.22-.19,2.22.96v30.67ZM52.05,41.09c-.24.24-.55.36-.86.36s-.62-.12-.86-.36l-5.72-5.72-5.72,5.72c-.24.24-.55.36-.86.36s-.62-.12-.86-.36c-.47-.47-.47-1.24,0-1.72l5.72-5.72-5.72-5.72c-.47-.47-.47-1.24,0-1.72s1.24-.47,1.72,0l5.72,5.72,5.72-5.72c.47-.47,1.24-.47,1.72,0s.47,1.24,0,1.72l-5.72,5.72,5.72,5.72c.47.47.47,1.24,0,1.72Z"/>
</svg>